<?xml version="1.0" encoding="UTF-8"?>
<svg width="20px" height="20px" viewBox="0 0 20 20" version="1.1" xmlns="http://www.w3.org/2000/svg" xmlns:xlink="http://www.w3.org/1999/xlink">
    <!-- Generator: Sketch 63.1 (92452) - https://sketch.com -->
    <title>Group 16</title>
    <desc>Created with Sketch.</desc>
    <defs>
        <polygon id="path-1" points="0 0.0002 19.9995 0.0002 19.9995 20 0 20"></polygon>
    </defs>
    <g id="Symbols" stroke="none" stroke-width="1" fill="none" fill-rule="evenodd">
        <g id="Desktop/Icon/Calender" transform="translate(-2.000000, -2.000000)">
            <g id="Group-16" transform="translate(2.000000, 2.000000)">
                <g id="Group-3">
                    <mask id="mask-2" fill="white">
                        <use xlink:href="#path-1"></use>
                    </mask>
                    <g id="Clip-2"></g>
                    <path d="M17.9995,17.0002 C17.9995,17.5522 17.5525,18.0002 16.9995,18.0002 L2.9995,18.0002 C2.4475,18.0002 1.9995,17.5522 1.9995,17.0002 L1.9995,7.0002 C1.9995,6.4482 2.4475,6.0002 2.9995,6.0002 L16.9995,6.0002 C17.5525,6.0002 17.9995,6.4482 17.9995,7.0002 L17.9995,17.0002 Z M17.9995,2.0002 L17.9995,1.0002 C17.9995,0.4482 17.5525,0.0002 16.9995,0.0002 C16.4475,0.0002 15.9995,0.4482 15.9995,1.0002 L15.9995,2.0002 L11.6515,2.0002 L11.6515,2.0042 L8.9305,2.0042 L8.9305,2.0002 L3.9995,2.0002 L3.9995,1.0002 C3.9995,0.4482 3.5525,0.0002 2.9995,0.0002 C2.4475,0.0002 1.9995,0.4482 1.9995,1.0002 L1.9995,2.0002 C0.8955,2.0002 -0.0005,2.8952 -0.0005,4.0002 L-0.0005,18.0002 C-0.0005,19.1042 0.8955,20.0002 1.9995,20.0002 L17.9995,20.0002 C19.1045,20.0002 19.9995,19.1042 19.9995,18.0002 L19.9995,4.0002 C19.9995,2.8952 19.1045,2.0002 17.9995,2.0002 L17.9995,2.0002 Z" id="Fill-1" fill="#000000" mask="url(#mask-2)"></path>
                </g>
                <path d="M6.2388,11.0119 L5.0148,11.0119 C4.5728,11.0119 4.2138,10.6539 4.2138,10.2109 L4.2138,8.9869 C4.2138,8.5439 4.5728,8.1849 5.0148,8.1849 L6.2388,8.1849 C6.6808,8.1849 7.0408,8.5439 7.0408,8.9869 L7.0408,10.2109 C7.0408,10.6539 6.6808,11.0119 6.2388,11.0119" id="Fill-4" fill="#000000"></path>
                <path d="M10.6118,11.0119 L9.3878,11.0119 C8.9458,11.0119 8.5868,10.6539 8.5868,10.2109 L8.5868,8.9869 C8.5868,8.5439 8.9458,8.1849 9.3878,8.1849 L10.6118,8.1849 C11.0538,8.1849 11.4138,8.5439 11.4138,8.9869 L11.4138,10.2109 C11.4138,10.6539 11.0538,11.0119 10.6118,11.0119" id="Fill-6" fill="#000000"></path>
                <path d="M14.9409,11.0119 L13.7159,11.0119 C13.2739,11.0119 12.9159,10.6539 12.9159,10.2109 L12.9159,8.9869 C12.9159,8.5439 13.2739,8.1849 13.7159,8.1849 L14.9409,8.1849 C15.3829,8.1849 15.7419,8.5439 15.7419,8.9869 L15.7419,10.2109 C15.7419,10.6539 15.3829,11.0119 14.9409,11.0119" id="Fill-8" fill="#000000"></path>
                <path d="M6.2612,15.5568 L5.0362,15.5568 C4.5942,15.5568 4.2362,15.1978 4.2362,14.7558 L4.2362,13.5318 C4.2362,13.0888 4.5942,12.7298 5.0362,12.7298 L6.2612,12.7298 C6.7032,12.7298 7.0632,13.0888 7.0632,13.5318 L7.0632,14.7558 C7.0632,15.1978 6.7032,15.5568 6.2612,15.5568" id="Fill-10" fill="#000000"></path>
                <path d="M10.6343,15.5568 L9.4103,15.5568 C8.9673,15.5568 8.6093,15.1978 8.6093,14.7558 L8.6093,13.5318 C8.6093,13.0888 8.9673,12.7298 9.4103,12.7298 L10.6343,12.7298 C11.0763,12.7298 11.4363,13.0888 11.4363,13.5318 L11.4363,14.7558 C11.4363,15.1978 11.0763,15.5568 10.6343,15.5568" id="Fill-12" fill="#000000"></path>
                <path d="M14.9624,15.5568 L13.7384,15.5568 C13.2964,15.5568 12.9374,15.1978 12.9374,14.7558 L12.9374,13.5318 C12.9374,13.0888 13.2964,12.7298 13.7384,12.7298 L14.9624,12.7298 C15.4054,12.7298 15.7644,13.0888 15.7644,13.5318 L15.7644,14.7558 C15.7644,15.1978 15.4054,15.5568 14.9624,15.5568" id="Fill-14" fill="#000000"></path>
            </g>
        </g>
    </g>
</svg>