<?xml version="1.0" encoding="UTF-8"?>
<svg width="14px" height="20px" viewBox="0 0 14 20" version="1.1" xmlns="http://www.w3.org/2000/svg" xmlns:xlink="http://www.w3.org/1999/xlink">
    <!-- Generator: Sketch 63.1 (92452) - https://sketch.com -->
    <title>Group 3</title>
    <desc>Created with Sketch.</desc>
    <defs>
        <polygon id="path-1" points="0 0 13.9998 0 13.9998 19.9998 0 19.9998"></polygon>
    </defs>
    <g id="Symbols" stroke="none" stroke-width="1" fill="none" fill-rule="evenodd">
        <g id="Desktop/Icon/marker" transform="translate(-5.000000, -2.000000)">
            <g id="Group-3" transform="translate(5.000000, 2.000000)">
                <mask id="mask-2" fill="white">
                    <use xlink:href="#path-1"></use>
                </mask>
                <g id="Clip-2"></g>
                <path d="M6.9998,9.2188 C5.8958,9.2188 4.9998,8.3228 4.9998,7.2188 C4.9998,6.1148 5.8958,5.2188 6.9998,5.2188 C8.1048,5.2188 8.9998,6.1148 8.9998,7.2188 C8.9998,8.3228 8.1048,9.2188 6.9998,9.2188 M6.9998,-0.0002 C3.1338,-0.0002 -0.0002,3.1338 -0.0002,6.9998 C-0.0002,10.8658 6.9998,19.9998 6.9998,19.9998 C6.9998,19.9998 13.9998,10.8658 13.9998,6.9998 C13.9998,3.1338 10.8658,-0.0002 6.9998,-0.0002" id="Fill-1" fill="#000000" mask="url(#mask-2)"></path>
            </g>
        </g>
    </g>
</svg>