<?xml version="1.0" encoding="UTF-8"?>
<svg width="22px" height="18px" viewBox="0 0 22 18" version="1.1" xmlns="http://www.w3.org/2000/svg" xmlns:xlink="http://www.w3.org/1999/xlink">
    <!-- Generator: Sketch 63.1 (92452) - https://sketch.com -->
    <title>Twitter icon</title>
    <desc>Created with Sketch.</desc>
    <g id="Symbols" stroke="none" stroke-width="1" fill="none" fill-rule="evenodd">
        <g id="Desktop/Icon/Twitter" transform="translate(-1.000000, -3.000000)" fill="#000000">
            <path d="M20.7497443,8.09450781 C20.7497443,7.89839863 20.7497443,7.70228946 20.7497443,7.50618029 C21.6296641,6.86166277 22.3911429,6.0678631 23,5.16041286 C22.1741646,5.5234666 21.2997021,5.7623615 20.4047051,5.86942295 C21.3459678,5.30498967 22.0500759,4.41458499 22.3849301,3.36525965 C21.4979932,3.89131837 20.5293682,4.26358931 19.5196045,4.46648809 C18.1307973,2.94410211 15.893026,2.56071255 14.0812431,3.53475256 C12.2694602,4.50879257 11.3436275,6.59298017 11.8312308,8.59986606 C8.19264851,8.42667091 4.79941539,6.70414047 2.50017047,3.86307524 C1.30877261,5.9295091 1.91957015,8.57123809 3.89532901,9.89720368 C3.1770253,9.87327899 2.474865,9.67671626 1.84759632,9.32396148 L1.84759632,9.38430276 C1.83409348,11.5656735 3.37000134,13.4463099 5.50051142,13.8571005 C4.83476349,14.036441 4.13732624,14.062225 3.46027958,13.9325271 C4.04634215,15.7847214 5.74309731,17.0537549 7.67575861,17.0853592 C6.07700816,18.3458516 4.10419251,19.0310235 2.07262189,19.0313656 C1.7141495,19.0275396 1.35612077,19.0048807 1,18.9634817 C3.06453739,20.2925514 5.46441635,20.9992531 7.91578588,21 C16.2117286,21 20.7497443,14.0909229 20.7497443,8.09450781 Z" id="Twitter-icon"></path>
        </g>
    </g>
</svg>