<?xml version="1.0" encoding="UTF-8"?>
<svg width="20px" height="20px" viewBox="0 0 20 20" version="1.1" xmlns="http://www.w3.org/2000/svg" xmlns:xlink="http://www.w3.org/1999/xlink">
    <!-- Generator: Sketch 63.1 (92452) - https://sketch.com -->
    <title>Instagram icon</title>
    <desc>Created with Sketch.</desc>
    <g id="Symbols" stroke="none" stroke-width="1" fill="none" fill-rule="evenodd">
        <g id="Desktop/Icon/Instagram" transform="translate(-3.000000, -3.000000)" fill="#000000">
            <path d="M14.0291857,3.00102708 C15.8322598,3.00508257 16.2126655,3.02211566 17.1267745,3.06185953 C18.1855071,3.10822739 18.9196648,3.27824284 19.5533588,3.52553805 C20.2102367,3.78056123 20.7666509,4.12059215 21.3230651,4.67700637 C21.8794793,5.23342059 22.2195102,5.7898348 22.4745334,6.4467127 C22.7218286,7.08040667 22.8918441,7.80683635 22.9382119,8.87329694 C22.9845798,9.78740601 22.9968815,10.1678117 22.9994499,11.9708857 L22.9994844,13.7962502 C22.9963689,15.8014859 22.9796118,16.1745776 22.9382119,17.1267745 C22.8918441,18.1855071 22.7218286,18.9196648 22.4745334,19.5533588 C22.2195102,20.2102367 21.8794793,20.7666509 21.3230651,21.3230651 C20.7666509,21.8794793 20.2102367,22.2195102 19.5533588,22.4745334 C18.9196648,22.7218286 18.1932351,22.8918441 17.1267745,22.9382119 C16.2126655,22.9845798 15.8322598,22.9968815 14.0291857,22.9994499 L12.2038212,22.9994844 C10.1985856,22.9963689 9.82549389,22.9796118 8.87329694,22.9382119 C7.81456433,22.8918441 7.08040667,22.7218286 6.4467127,22.4745334 C5.7898348,22.2195102 5.23342059,21.8794793 4.67700637,21.3230651 C4.12059215,20.7666509 3.78056123,20.2102367 3.52553805,19.5533588 C3.27824284,18.9196648 3.10822739,18.1932351 3.06185953,17.1267745 C3.01742368,16.2507533 3.00427429,15.8648869 3.00099504,14.2473018 L3.00102708,11.9708857 C3.00508257,10.1678117 3.02211566,9.78740601 3.06185953,8.87329694 C3.10822739,7.81456433 3.27824284,7.08040667 3.52553805,6.4467127 C3.78056123,5.7898348 4.12059215,5.23342059 4.67700637,4.67700637 C5.23342059,4.12059215 5.7898348,3.78056123 6.4467127,3.52553805 C7.08040667,3.27824284 7.80683635,3.10822739 8.87329694,3.06185953 C9.74931813,3.01742368 10.1351846,3.00427429 11.7527697,3.00099504 Z M13.7985084,4.79326522 L12.4372449,4.7931867 C10.2751453,4.79538538 9.93088466,4.8118166 8.95057669,4.8547498 C7.97685181,4.90111765 7.45134949,5.06340513 7.09586263,5.20250868 C6.62445613,5.38798009 6.2921532,5.6043634 5.94439431,5.95212229 C5.59663542,6.29988117 5.37252414,6.63991208 5.19478071,7.1035906 C5.05567715,7.45134949 4.89338967,7.98457978 4.84702182,8.95830467 C4.79292599,10.0093093 4.78519802,10.3338843 4.78519802,13.0000357 L4.78526241,13.2867639 C4.78638531,15.690675 4.8023713,16.0222465 4.84702182,17.0417668 C4.89338967,18.0154917 5.05567715,18.540994 5.19478071,18.8964809 C5.38025212,19.3678874 5.59663542,19.7001903 5.94439431,20.0479492 C6.2921532,20.3957081 6.63218411,20.6198193 7.09586263,20.7975628 C7.44362151,20.9366663 7.97685181,21.0989538 8.95057669,21.1453217 C9.84587694,21.1914033 10.2084345,21.203838 11.9490613,21.206511 L13.8002893,21.2065518 C15.7441348,21.2033292 16.0929432,21.1865375 17.0340388,21.1453217 C18.0077637,21.0989538 18.533266,20.9366663 18.8887529,20.7975628 C19.3601594,20.6120914 19.6924623,20.3957081 20.0402212,20.0479492 C20.3879801,19.7001903 20.6120914,19.3601594 20.7898348,18.8964809 C20.9289384,18.548722 21.0912258,18.0154917 21.1375937,17.0417668 C21.1839615,15.9907622 21.1994175,15.6661872 21.1994175,13.0000357 L21.1993531,12.7133076 C21.1982302,10.3093964 21.1822442,9.97782496 21.1375937,8.95830467 C21.0912258,7.98457978 20.9289384,7.45907746 20.7898348,7.1035906 C20.6043634,6.63218411 20.3879801,6.29988117 20.0402212,5.95212229 C19.6924623,5.6043634 19.3524314,5.38025212 18.8887529,5.20250868 C18.540994,5.06340513 18.0077637,4.90111765 17.0340388,4.8547498 C16.0998125,4.80666462 15.7395553,4.79521577 13.7985084,4.79326522 Z M13.0000357,7.80003573 C15.8698102,7.80003573 18.2000357,10.1302613 18.2000357,13.0000357 C18.2000357,15.8698102 15.8698102,18.2000357 13.0000357,18.2000357 C10.1302613,18.2000357 7.80003573,15.8698102 7.80003573,13.0000357 C7.80003573,10.1302613 10.1302613,7.80003573 13.0000357,7.80003573 Z M13.0000357,9.62199062 C11.1311636,9.62199062 9.62199062,11.1389831 9.62199062,13.0000357 C9.62199062,14.8689079 11.1389831,16.3780808 13.0000357,16.3780808 C14.8610884,16.3780808 16.3780808,14.8610884 16.3780808,13.0000357 C16.3780808,11.1311636 14.8689079,9.62199062 13.0000357,9.62199062 Z M18.6000357,6.20003573 C19.2627774,6.20003573 19.8000357,6.73729403 19.8000357,7.40003573 C19.8000357,8.06277743 19.2627774,8.60003573 18.6000357,8.60003573 C17.937294,8.60003573 17.4000357,8.06277743 17.4000357,7.40003573 C17.4000357,6.73729403 17.937294,6.20003573 18.6000357,6.20003573 Z" id="Instagram-icon"></path>
        </g>
    </g>
</svg>